font.ufo
<glyph name="dvKxA" format="1">
  <advance width="729"/>
  <unicode hex="0958"/>
  <outline>
    <contour>
      <point x="320" y="0" type="move" name="blwm_halant"/>
    </contour>
    <contour>
      <point x="320" y="0" type="move" name="blwm_Ukaar"/>
    </contour>
    <contour>
      <point x="409" y="0" type="move" name="blwm_VocalicR"/>
    </contour>
    <contour>
      <point x="409" y="623" type="move" name="abvm_Anusvara"/>
    </contour>
    <contour>
      <point x="320" y="0" type="move" name="blwm_Uukaar"/>
    </contour>
    <contour>
      <point x="409" y="623" type="move" name="abvm_Ekaar"/>
    </contour>
    <component base="dvKA"/>
    <component base="dvNukta" xOffset="408" yOffset="34"/>
  </outline>
</glyph>
<glyph name="dvDDxA" format="1">
  <advance width="465"/>
  <unicode hex="095C"/>
  <outline>
    <contour>
      <point x="182" y="-133" type="move" name="blwm_halant"/>
    </contour>
    <contour>
      <point x="186" y="-205" type="move" name="blwm_Ukaar"/>
    </contour>
    <contour>
      <point x="285" y="-205" type="move" name="blwm_VocalicR"/>
    </contour>
    <contour>
      <point x="276" y="623" type="move" name="abvm_Anusvara"/>
    </contour>
    <contour>
      <point x="186" y="-212" type="move" name="blwm_Uukaar"/>
    </contour>
    <contour>
      <point x="386" y="623" type="move" name="abvm_Ekaar"/>
    </contour>
    <component base="dvDDA"/>
    <component base="dvNukta" xOffset="461" yOffset="-44"/>
  </outline>
</glyph>
<glyph name="dvDDHxA" format="1">
  <advance width="486"/>
  <unicode hex="095D"/>
  <outline>
    <contour>
      <point x="205" y="-103" type="move" name="blwm_halant"/>
    </contour>
    <contour>
      <point x="217" y="-175" type="move" name="blwm_Ukaar"/>
    </contour>
    <contour>
      <point x="310" y="-175" type="move" name="blwm_VocalicR"/>
    </contour>
    <contour>
      <point x="311" y="623" type="move" name="abvm_Anusvara"/>
    </contour>
    <contour>
      <point x="191" y="-182" type="move" name="blwm_Uukaar"/>
    </contour>
    <contour>
      <point x="409" y="623" type="move" name="abvm_Ekaar"/>
    </contour>
    <component base="dvDDHA"/>
    <component base="dvNukta" xOffset="486" yOffset="-14"/>
  </outline>
</glyph>
<glyph name="dvPHxA" format="1">
  <advance width="743"/>
  <unicode hex="095E"/>
  <outline>
    <contour>
      <point x="332" y="0" type="move" name="blwm_halant"/>
    </contour>
    <contour>
      <point x="332" y="0" type="move" name="blwm_Ukaar"/>
    </contour>
    <contour>
      <point x="422" y="0" type="move" name="blwm_VocalicR"/>
    </contour>
    <contour>
      <point x="422" y="623" type="move" name="abvm_Anusvara"/>
    </contour>
    <contour>
      <point x="332" y="0" type="move" name="blwm_Uukaar"/>
    </contour>
    <contour>
      <point x="422" y="623" type="move" name="abvm_Ekaar"/>
    </contour>
    <component base="dvPHA"/>
    <component base="dvNukta" xOffset="404" yOffset="45"/>
  </outline>
</glyph>
<glyph name="dvB_DA" format="1">
  <advance width="781"/>
  <outline>
    <contour>
      <point x="632" y="14" type="move" name="blwm_halant"/>
    </contour>
    <contour>
      <point x="632" y="0" type="move" name="blwm_Ukaar"/>
    </contour>
    <contour>
      <point x="721" y="0" type="move" name="blwm_VocalicR"/>
    </contour>
    <contour>
      <point x="593" y="623" type="move" name="abvm_Anusvara"/>
    </contour>
    <contour>
      <point x="632" y="0" type="move" name="blwm_Uukaar"/>
    </contour>
    <contour>
      <point x="712" y="623" type="move" name="abvm_Ekaar"/>
    </contour>
    <component base="dvDA" xOffset="296"/>
    <component base="dvB"/>
  </outline>
</glyph>
<glyph name="dvCH_NA" format="1">
  <advance width="998"/>
  <outline>
    <contour>
      <point x="-5" y="623" type="line"/>
      <point x="-18" y="623"/>
      <point x="-24" y="617"/>
      <point x="-24" y="605" type="curve" smooth="yes"/>
      <point x="-24" y="563" type="line" smooth="yes"/>
      <point x="-24" y="549"/>
      <point x="-18" y="543"/>
      <point x="-5" y="543" type="curve" smooth="yes"/>
      <point x="93" y="543" type="line"/>
      <point x="93" y="539" type="line"/>
      <point x="72" y="529"/>
      <point x="61" y="509"/>
      <point x="61" y="477" type="curve" smooth="yes"/>
      <point x="61" y="398" type="line" smooth="yes"/>
      <point x="61" y="357"/>
      <point x="81" y="327"/>
      <point x="119" y="318" type="curve"/>
      <point x="119" y="314" type="line"/>
      <point x="78" y="300"/>
      <point x="61" y="265"/>
      <point x="61" y="217" type="curve" smooth="yes"/>
      <point x="61" y="181" type="line" smooth="yes"/>
      <point x="61" y="88"/>
      <point x="121" y="39"/>
      <point x="217" y="39" type="curve" smooth="yes"/>
      <point x="360" y="39" type="line" smooth="yes"/>
      <point x="461" y="39"/>
      <point x="509" y="110"/>
      <point x="509" y="188" type="curve" smooth="yes"/>
      <point x="509" y="331" type="line" smooth="yes"/>
      <point x="509" y="416"/>
      <point x="467" y="460"/>
      <point x="381" y="460" type="curve" smooth="yes"/>
      <point x="340" y="460" type="line" smooth="yes"/>
      <point x="327" y="460"/>
      <point x="321" y="454"/>
      <point x="321" y="442" type="curve" smooth="yes"/>
      <point x="321" y="399" type="line" smooth="yes"/>
      <point x="321" y="386"/>
      <point x="327" y="380"/>
      <point x="340" y="380" type="curve" smooth="yes"/>
      <point x="374" y="380" type="line" smooth="yes"/>
      <point x="406" y="380"/>
      <point x="421" y="363"/>
      <point x="421" y="333" type="curve" smooth="yes"/>
      <point x="421" y="200" type="line" smooth="yes"/>
      <point x="421" y="145"/>
      <point x="397" y="122"/>
      <point x="342" y="122" type="curve" smooth="yes"/>
      <point x="226" y="122" type="line" smooth="yes"/>
      <point x="174" y="122"/>
      <point x="152" y="139"/>
      <point x="152" y="190" type="curve" smooth="yes"/>
      <point x="152" y="216" type="line" smooth="yes"/>
      <point x="152" y="256"/>
      <point x="170" y="278"/>
      <point x="213" y="278" type="curve" smooth="yes"/>
      <point x="241" y="278" type="line" smooth="yes"/>
      <point x="255" y="278"/>
      <point x="261" y="284"/>
      <point x="261" y="295" type="curve" smooth="yes"/>
      <point x="261" y="338" type="line" smooth="yes"/>
      <point x="261" y="351"/>
      <point x="255" y="357"/>
      <point x="241" y="357" type="curve" smooth="yes"/>
      <point x="206" y="357" type="line" smooth="yes"/>
      <point x="171" y="357"/>
      <point x="152" y="376"/>
      <point x="152" y="411" type="curve" smooth="yes"/>
      <point x="152" y="479" type="line" smooth="yes"/>
      <point x="152" y="520"/>
      <point x="170" y="543"/>
      <point x="212" y="543" type="curve" smooth="yes"/>
      <point x="568" y="543" type="line" smooth="yes"/>
      <point x="581" y="543"/>
      <point x="588" y="549"/>
      <point x="588" y="563" type="curve" smooth="yes"/>
      <point x="588" y="605" type="line" smooth="yes"/>
      <point x="588" y="617"/>
      <point x="581" y="623"/>
      <point x="568" y="623" type="curve" smooth="yes"/>
    </contour>
    <contour>
      <point x="826" y="543" type="line"/>
      <point x="833" y="542"/>
      <point x="835" y="538"/>
      <point x="835" y="531" type="curve" smooth="yes"/>
      <point x="835" y="403" type="line" smooth="yes"/>
      <point x="835" y="396"/>
      <point x="832" y="391"/>
      <point x="824" y="391" type="curve"/>
      <point x="660" y="391" type="line" smooth="yes"/>
      <point x="590" y="391"/>
      <point x="546" y="348"/>
      <point x="546" y="283" type="curve" smooth="yes"/>
      <point x="546" y="254"/>
      <point x="550" y="222"/>
      <point x="564" y="200" type="curve" smooth="yes"/>
      <point x="570" y="192"/>
      <point x="579" y="187"/>
      <point x="591" y="187" type="curve" smooth="yes"/>
      <point x="629" y="187" type="line" smooth="yes"/>
      <point x="641" y="187"/>
      <point x="647" y="195"/>
      <point x="647" y="205" type="curve" smooth="yes"/>
      <point x="647" y="211"/>
      <point x="645" y="217"/>
      <point x="643" y="226" type="curve" smooth="yes"/>
      <point x="640" y="238"/>
      <point x="636" y="251"/>
      <point x="636" y="265" type="curve" smooth="yes"/>
      <point x="636" y="299"/>
      <point x="656" y="310"/>
      <point x="692" y="310" type="curve" smooth="yes"/>
      <point x="824" y="310" type="line" smooth="yes"/>
      <point x="832" y="310"/>
      <point x="835" y="305"/>
      <point x="835" y="297" type="curve" smooth="yes"/>
      <point x="835" y="19" type="line" smooth="yes"/>
      <point x="835" y="5"/>
      <point x="842" y="0"/>
      <point x="854" y="0" type="curve" smooth="yes"/>
      <point x="907" y="0" type="line" smooth="yes"/>
      <point x="920" y="0"/>
      <point x="926" y="5"/>
      <point x="926" y="19" type="curve" smooth="yes"/>
      <point x="926" y="531" type="line" smooth="yes"/>
      <point x="926" y="538"/>
      <point x="930" y="543"/>
      <point x="937" y="543" type="curve" smooth="yes"/>
      <point x="1003" y="543" type="line" smooth="yes"/>
      <point x="1017" y="543"/>
      <point x="1022" y="549"/>
      <point x="1022" y="562" type="curve" smooth="yes"/>
      <point x="1022" y="605" type="line" smooth="yes"/>
      <point x="1022" y="617"/>
      <point x="1017" y="623"/>
      <point x="1003" y="623" type="curve" smooth="yes"/>
      <point x="510" y="623" type="line" smooth="yes"/>
      <point x="496" y="623"/>
      <point x="490" y="617"/>
      <point x="490" y="605" type="curve" smooth="yes"/>
      <point x="490" y="562" type="line" smooth="yes"/>
      <point x="490" y="549"/>
      <point x="496" y="543"/>
      <point x="510" y="543" type="curve"/>
    </contour>
  </outline>
</glyph>
<glyph name="dvCH_RA" format="1">
  <advance width="564"/>
  <outline>
    <contour>
      <point x="241" y="-82" type="move" name="blwm_halant"/>
    </contour>
    <contour>
      <point x="282" y="-153" type="move" name="blwm_Ukaar"/>
    </contour>
    <contour>
      <point x="350" y="-153" type="move" name="blwm_VocalicR"/>
    </contour>
    <contour>
      <point x="323" y="623" type="move" name="abvm_Anusvara"/>
    </contour>
    <contour>
      <point x="241" y="-157" type="move" name="blwm_Uukaar"/>
    </contour>
    <contour>
      <point x="494" y="623" type="move" name="abvm_Ekaar"/>
    </contour>
    <component base="dvCHA"/>
    <component base="dvRashtrasign" xOffset="548" yOffset="99"/>
  </outline>
</glyph>
<glyph name="dvCH_VA" format="1">
  <advance width="564"/>
  <outline>
    <contour>
      <point x="241" y="-118" type="move" name="blwm_halant"/>
    </contour>
    <contour>
      <point x="280" y="-190" type="move" name="blwm_Ukaar"/>
    </contour>
    <contour>
      <point x="346" y="-190" type="move" name="blwm_VocalicR"/>
    </contour>
    <contour>
      <point x="323" y="623" type="move" name="abvm_Anusvara"/>
    </contour>
    <contour>
      <point x="241" y="-197" type="move" name="blwm_Uukaar"/>
    </contour>
    <contour>
      <point x="494" y="623" type="move" name="abvm_Ekaar"/>
    </contour>
    <contour>
      <point x="-5" y="623" type="line"/>
      <point x="-18" y="623"/>
      <point x="-24" y="617"/>
      <point x="-24" y="605" type="curve" smooth="yes"/>
      <point x="-24" y="563" type="line" smooth="yes"/>
      <point x="-24" y="549"/>
      <point x="-18" y="543"/>
      <point x="-5" y="543" type="curve" smooth="yes"/>
      <point x="93" y="543" type="line"/>
      <point x="93" y="539" type="line"/>
      <point x="72" y="529"/>
      <point x="61" y="509"/>
      <point x="61" y="477" type="curve" smooth="yes"/>
      <point x="61" y="414" type="line" smooth="yes"/>
      <point x="61" y="373"/>
      <point x="81" y="342"/>
      <point x="119" y="333" type="curve"/>
      <point x="119" y="329" type="line"/>
      <point x="78" y="316"/>
      <point x="61" y="280"/>
      <point x="61" y="232" type="curve" smooth="yes"/>
      <point x="61" y="212" type="line" smooth="yes"/>
      <point x="61" y="119"/>
      <point x="121" y="74"/>
      <point x="217" y="74" type="curve" smooth="yes"/>
      <point x="340" y="74" type="line" smooth="yes"/>
      <point x="435" y="74"/>
      <point x="509" y="143"/>
      <point x="509" y="237" type="curve" smooth="yes"/>
      <point x="509" y="305" type="line" smooth="yes"/>
      <point x="509" y="389"/>
      <point x="467" y="433"/>
      <point x="381" y="433" type="curve" smooth="yes"/>
      <point x="340" y="433" type="line" smooth="yes"/>
      <point x="327" y="433"/>
      <point x="321" y="427"/>
      <point x="321" y="415" type="curve" smooth="yes"/>
      <point x="321" y="372" type="line" smooth="yes"/>
      <point x="321" y="359"/>
      <point x="327" y="353"/>
      <point x="340" y="353" type="curve" smooth="yes"/>
      <point x="374" y="353" type="line" smooth="yes"/>
      <point x="406" y="353"/>
      <point x="421" y="336"/>
      <point x="421" y="306" type="curve" smooth="yes"/>
      <point x="421" y="231" type="line" smooth="yes"/>
      <point x="421" y="177"/>
      <point x="397" y="153"/>
      <point x="342" y="153" type="curve" smooth="yes"/>
      <point x="226" y="153" type="line" smooth="yes"/>
      <point x="174" y="153"/>
      <point x="152" y="171"/>
      <point x="152" y="221" type="curve" smooth="yes"/>
      <point x="152" y="231" type="line" smooth="yes"/>
      <point x="152" y="272"/>
      <point x="170" y="293"/>
      <point x="213" y="293" type="curve" smooth="yes"/>
      <point x="241" y="293" type="line" smooth="yes"/>
      <point x="255" y="293"/>
      <point x="261" y="300"/>
      <point x="261" y="311" type="curve" smooth="yes"/>
      <point x="261" y="354" type="line" smooth="yes"/>
      <point x="261" y="366"/>
      <point x="255" y="373"/>
      <point x="241" y="373" type="curve" smooth="yes"/>
      <point x="206" y="373" type="line" smooth="yes"/>
      <point x="171" y="373"/>
      <point x="152" y="392"/>
      <point x="152" y="427" type="curve" smooth="yes"/>
      <point x="152" y="479" type="line" smooth="yes"/>
      <point x="152" y="520"/>
      <point x="170" y="543"/>
      <point x="212" y="543" type="curve" smooth="yes"/>
      <point x="379" y="543" type="line" smooth="yes"/>
      <point x="387" y="542"/>
      <point x="391" y="539"/>
      <point x="391" y="531" type="curve" smooth="yes"/>
      <point x="391" y="460" type="line" smooth="yes"/>
      <point x="391" y="432"/>
      <point x="380" y="413"/>
      <point x="360" y="401" type="curve"/>
      <point x="437" y="401" type="line"/>
      <point x="461" y="409"/>
      <point x="484" y="433"/>
      <point x="484" y="475" type="curve" smooth="yes"/>
      <point x="484" y="532" type="line" smooth="yes"/>
      <point x="484" y="540"/>
      <point x="488" y="543"/>
      <point x="496" y="543" type="curve" smooth="yes"/>
      <point x="568" y="543" type="line" smooth="yes"/>
      <point x="581" y="543"/>
      <point x="588" y="549"/>
      <point x="588" y="563" type="curve" smooth="yes"/>
      <point x="588" y="605" type="line" smooth="yes"/>
      <point x="588" y="617"/>
      <point x="581" y="623"/>
      <point x="568" y="623" type="curve"/>
    </contour>
    <contour>
      <point x="397" y="155" type="line"/>
      <point x="397" y="20" type="line" smooth="yes"/>
      <point x="397" y="-24"/>
      <point x="377" y="-56"/>
      <point x="315" y="-56" type="curve" smooth="yes"/>
      <point x="263" y="-56" type="line" smooth="yes"/>
      <point x="205" y="-56"/>
      <point x="184" y="-35"/>
      <point x="184" y="10" type="curve" smooth="yes"/>
      <point x="184" y="47"/>
      <point x="200" y="74"/>
      <point x="241" y="74" type="curve"/>
      <point x="164" y="114" type="line"/>
      <point x="123" y="100"/>
      <point x="94" y="69"/>
      <point x="94" y="2" type="curve" smooth="yes"/>
      <point x="94" y="-85"/>
      <point x="150" y="-135"/>
      <point x="243" y="-135" type="curve" smooth="yes"/>
      <point x="333" y="-135" type="line" smooth="yes"/>
      <point x="427" y="-135"/>
      <point x="484" y="-72"/>
      <point x="484" y="26" type="curve" smooth="yes"/>
      <point x="484" y="155" type="line"/>
    </contour>
  </outline>
</glyph>
<glyph name="dvC_CH_VA" format="1">
  <advance width="913"/>
  <outline>
    <contour>
      <point x="590" y="-119" type="move" name="blwm_halant"/>
    </contour>
    <contour>
      <point x="647" y="-190" type="move" name="blwm_Ukaar"/>
    </contour>
    <contour>
      <point x="695" y="-190" type="move" name="blwm_VocalicR"/>
    </contour>
    <contour>
      <point x="672" y="623" type="move" name="abvm_Anusvara"/>
    </contour>
    <contour>
      <point x="582" y="-197" type="move" name="blwm_Uukaar"/>
    </contour>
    <contour>
      <point x="844" y="623" type="move" name="abvm_Ekaar"/>
    </contour>
    <contour>
      <point x="459" y="543" type="line"/>
      <point x="472" y="543"/>
      <point x="479" y="549"/>
      <point x="479" y="562" type="curve" smooth="yes"/>
      <point x="479" y="605" type="line" smooth="yes"/>
      <point x="479" y="617"/>
      <point x="472" y="623"/>
      <point x="459" y="623" type="curve"/>
      <point x="-5" y="623" type="line"/>
      <point x="-18" y="623"/>
      <point x="-24" y="617"/>
      <point x="-24" y="605" type="curve" smooth="yes"/>
      <point x="-24" y="562" type="line" smooth="yes"/>
      <point x="-24" y="549"/>
      <point x="-18" y="543"/>
      <point x="-5" y="543" type="curve"/>
    </contour>
    <contour>
      <point x="333" y="89" type="line"/>
      <point x="415" y="89"/>
      <point x="465" y="139"/>
      <point x="489" y="179" type="curve" smooth="yes"/>
      <point x="491" y="181"/>
      <point x="494" y="186"/>
      <point x="494" y="191" type="curve" smooth="yes"/>
      <point x="494" y="199"/>
      <point x="490" y="204"/>
      <point x="482" y="211" type="curve" smooth="yes"/>
      <point x="461" y="227" type="line" smooth="yes"/>
      <point x="453" y="233"/>
      <point x="450" y="234"/>
      <point x="446" y="234" type="curve" smooth="yes"/>
      <point x="437" y="234"/>
      <point x="431" y="228"/>
      <point x="424" y="221" type="curve" smooth="yes"/>
      <point x="404" y="198"/>
      <point x="383" y="170"/>
      <point x="332" y="170" type="curve"/>
      <point x="271" y="170" type="line"/>
      <point x="216" y="170"/>
      <point x="189" y="197"/>
      <point x="189" y="250" type="curve" smooth="yes"/>
      <point x="189" y="283" type="line" smooth="yes"/>
      <point x="189" y="337"/>
      <point x="215" y="365"/>
      <point x="265" y="365" type="curve" smooth="yes"/>
      <point x="314" y="365" type="line" smooth="yes"/>
      <point x="327" y="365"/>
      <point x="333" y="371"/>
      <point x="333" y="383" type="curve" smooth="yes"/>
      <point x="333" y="427" type="line" smooth="yes"/>
      <point x="333" y="439"/>
      <point x="327" y="446"/>
      <point x="314" y="446" type="curve" smooth="yes"/>
      <point x="42" y="446" type="line" smooth="yes"/>
      <point x="28" y="446"/>
      <point x="23" y="439"/>
      <point x="23" y="427" type="curve" smooth="yes"/>
      <point x="23" y="383" type="line" smooth="yes"/>
      <point x="23" y="370"/>
      <point x="28" y="365"/>
      <point x="42" y="365" type="curve" smooth="yes"/>
      <point x="141" y="365" type="line"/>
      <point x="141" y="361" type="line"/>
      <point x="111" y="346"/>
      <point x="100" y="314"/>
      <point x="100" y="275" type="curve" smooth="yes"/>
      <point x="100" y="245" type="line" smooth="yes"/>
      <point x="100" y="145"/>
      <point x="157" y="89"/>
      <point x="257" y="89" type="curve"/>
    </contour>
    <component base="dvCH_VA" xOffset="360"/>
  </outline>
</glyph>
<glyph name="dvDDH_RA" format="1">
  <advance width="486"/>
  <outline>
    <contour>
      <point x="214" y="-84" type="move" name="blwm_halant"/>
    </contour>
    <contour>
      <point x="228" y="-156" type="move" name="blwm_Ukaar"/>
    </contour>
    <contour>
      <point x="319" y="-156" type="move" name="blwm_VocalicR"/>
    </contour>
    <contour>
      <point x="311" y="623" type="move" name="abvm_Anusvara"/>
    </contour>
    <contour>
      <point x="208" y="-163" type="move" name="blwm_Uukaar"/>
    </contour>
    <contour>
      <point x="409" y="623" type="move" name="abvm_Ekaar"/>
    </contour>
    <component base="dvRashtrasign" xOffset="523" yOffset="91"/>
    <component base="dvDDHA"/>
  </outline>
</glyph>
<glyph name="dvDD_NA" format="1">
  <advance width="484"/>
  <outline>
    <contour>
      <point x="315" y="-278" type="move" name="blwm_halant"/>
    </contour>
    <contour>
      <point x="315" y="-278" type="move" name="blwm_Ukaar"/>
    </contour>
    <contour>
      <point x="406" y="-278" type="move" name="blwm_VocalicR"/>
    </contour>
    <contour>
      <point x="292" y="623" type="move" name="abvm_Anusvara"/>
    </contour>
    <contour>
      <point x="315" y="-278" type="move" name="blwm_Uukaar"/>
    </contour>
    <contour>
      <point x="406" y="623" type="move" name="abvm_Ekaar"/>
    </contour>
    <contour>
      <point x="-5" y="623" type="line"/>
      <point x="-18" y="623"/>
      <point x="-24" y="617"/>
      <point x="-24" y="605" type="curve" smooth="yes"/>
      <point x="-24" y="561" type="line" smooth="yes"/>
      <point x="-24" y="548"/>
      <point x="-18" y="543"/>
      <point x="-5" y="543" type="curve" smooth="yes"/>
      <point x="306" y="543" type="line" smooth="yes"/>
      <point x="313" y="543"/>
      <point x="316" y="538"/>
      <point x="316" y="531" type="curve" smooth="yes"/>
      <point x="316" y="490" type="line" smooth="yes"/>
      <point x="316" y="482"/>
      <point x="312" y="478"/>
      <point x="305" y="478" type="curve" smooth="yes"/>
      <point x="188" y="478" type="line" smooth="yes"/>
      <point x="108" y="478"/>
      <point x="56" y="440"/>
      <point x="56" y="361" type="curve" smooth="yes"/>
      <point x="56" y="349" type="line" smooth="yes"/>
      <point x="56" y="267"/>
      <point x="99" y="235"/>
      <point x="188" y="235" type="curve" smooth="yes"/>
      <point x="292" y="235" type="line" smooth="yes"/>
      <point x="326" y="235"/>
      <point x="342" y="223"/>
      <point x="342" y="185" type="curve" smooth="yes"/>
      <point x="342" y="176" type="line" smooth="yes"/>
      <point x="342" y="139"/>
      <point x="326" y="126"/>
      <point x="292" y="126" type="curve" smooth="yes"/>
      <point x="206" y="126" type="line" smooth="yes"/>
      <point x="159" y="126"/>
      <point x="137" y="133"/>
      <point x="137" y="175" type="curve" smooth="yes"/>
      <point x="137" y="181" type="line" smooth="yes"/>
      <point x="137" y="196"/>
      <point x="130" y="204"/>
      <point x="119" y="204" type="curve" smooth="yes"/>
      <point x="71" y="204" type="line" smooth="yes"/>
      <point x="58" y="204"/>
      <point x="51" y="196"/>
      <point x="51" y="181" type="curve" smooth="yes"/>
      <point x="51" y="174" type="line" smooth="yes"/>
      <point x="51" y="74"/>
      <point x="110" y="47"/>
      <point x="198" y="47" type="curve" smooth="yes"/>
      <point x="306" y="47" type="line" smooth="yes"/>
      <point x="386" y="47"/>
      <point x="434" y="91"/>
      <point x="434" y="169" type="curve" smooth="yes"/>
      <point x="434" y="195" type="line" smooth="yes"/>
      <point x="434" y="272"/>
      <point x="386" y="309"/>
      <point x="306" y="309" type="curve" smooth="yes"/>
      <point x="195" y="309" type="line" smooth="yes"/>
      <point x="161" y="309"/>
      <point x="145" y="318"/>
      <point x="145" y="353" type="curve" smooth="yes"/>
      <point x="145" y="388"/>
      <point x="161" y="397"/>
      <point x="195" y="397" type="curve" smooth="yes"/>
      <point x="360" y="397" type="line" smooth="yes"/>
      <point x="386" y="397"/>
      <point x="406" y="410"/>
      <point x="406" y="441" type="curve" smooth="yes"/>
      <point x="406" y="531" type="line" smooth="yes"/>
      <point x="406" y="538"/>
      <point x="409" y="543"/>
      <point x="417" y="543" type="curve" smooth="yes"/>
      <point x="489" y="543" type="line" smooth="yes"/>
      <point x="502" y="543"/>
      <point x="508" y="548"/>
      <point x="508" y="561" type="curve" smooth="yes"/>
      <point x="508" y="605" type="line" smooth="yes"/>
      <point x="508" y="617"/>
      <point x="502" y="623"/>
      <point x="489" y="623" type="curve" smooth="yes"/>
    </contour>
    <contour>
      <point x="315" y="99" type="line"/>
      <point x="315" y="-8" type="line" smooth="yes"/>
      <point x="315" y="-16"/>
      <point x="312" y="-21"/>
      <point x="304" y="-21" type="curve" smooth="yes"/>
      <point x="166" y="-21" type="line" smooth="yes"/>
      <point x="96" y="-21"/>
      <point x="52" y="-64"/>
      <point x="52" y="-129" type="curve" smooth="yes"/>
      <point x="52" y="-158"/>
      <point x="56" y="-190"/>
      <point x="70" y="-211" type="curve" smooth="yes"/>
      <point x="76" y="-220"/>
      <point x="85" y="-225"/>
      <point x="97" y="-225" type="curve" smooth="yes"/>
      <point x="135" y="-225" type="line" smooth="yes"/>
      <point x="147" y="-225"/>
      <point x="153" y="-217"/>
      <point x="153" y="-207" type="curve" smooth="yes"/>
      <point x="153" y="-201"/>
      <point x="151" y="-195"/>
      <point x="149" y="-186" type="curve" smooth="yes"/>
      <point x="146" y="-174"/>
      <point x="142" y="-161"/>
      <point x="142" y="-147" type="curve" smooth="yes"/>
      <point x="142" y="-113"/>
      <point x="162" y="-102"/>
      <point x="198" y="-102" type="curve" smooth="yes"/>
      <point x="304" y="-102" type="line" smooth="yes"/>
      <point x="312" y="-102"/>
      <point x="315" y="-107"/>
      <point x="315" y="-114" type="curve" smooth="yes"/>
      <point x="315" y="-259" type="line" smooth="yes"/>
      <point x="315" y="-273"/>
      <point x="321" y="-278"/>
      <point x="334" y="-278" type="curve" smooth="yes"/>
      <point x="387" y="-278" type="line" smooth="yes"/>
      <point x="399" y="-278"/>
      <point x="406" y="-273"/>
      <point x="406" y="-259" type="curve" smooth="yes"/>
      <point x="406" y="99" type="line"/>
    </contour>
  </outline>
</glyph>
<glyph name="dvD_Y_BHA" format="1">
  <advance width="633"/>
  <outline>
    <contour>
      <point x="384" y="152" type="line"/>
      <point x="245" y="6" type="line" smooth="yes"/>
      <point x="241" y="1"/>
      <point x="238" y="0"/>
      <point x="235" y="0" type="curve" smooth="yes"/>
      <point x="232" y="0"/>
      <point x="229" y="1"/>
      <point x="222" y="7" type="curve" smooth="yes"/>
      <point x="204" y="25"/>
      <point x="174" y="44"/>
      <point x="154" y="44" type="curve" smooth="yes"/>
      <point x="119" y="52"/>
      <point x="84" y="41"/>
      <point x="49" y="12" type="curve" smooth="yes"/>
      <point x="34" y="4"/>
      <point x="25" y="-3"/>
      <point x="16" y="-15" type="curve"/>
      <point x="16" y="-20"/>
      <point x="17" y="-24"/>
      <point x="21" y="-29" type="curve" smooth="yes"/>
      <point x="21" y="-29"/>
      <point x="50" y="-55"/>
      <point x="50" y="-56" type="curve" smooth="yes"/>
      <point x="54" y="-60"/>
      <point x="60" y="-64"/>
      <point x="64" y="-64" type="curve" smooth="yes"/>
      <point x="69" y="-65"/>
      <point x="73" y="-63"/>
      <point x="78" y="-59" type="curve" smooth="yes"/>
      <point x="78" y="-59"/>
      <point x="82" y="-55"/>
      <point x="83" y="-55" type="curve" smooth="yes"/>
      <point x="96" y="-42"/>
      <point x="109" y="-32"/>
      <point x="124" y="-32" type="curve" smooth="yes"/>
      <point x="136" y="-32"/>
      <point x="147" y="-38"/>
      <point x="160" y="-50" type="curve" smooth="yes"/>
      <point x="288" y="-178" type="line" smooth="yes"/>
      <point x="292" y="-182"/>
      <point x="297" y="-185"/>
      <point x="301" y="-185" type="curve" smooth="yes"/>
      <point x="306" y="-185"/>
      <point x="310" y="-183"/>
      <point x="315" y="-177" type="curve" smooth="yes"/>
      <point x="347" y="-143" type="line"/>
      <point x="352" y="-139"/>
      <point x="354" y="-134"/>
      <point x="354" y="-129" type="curve" smooth="yes"/>
      <point x="354" y="-125"/>
      <point x="352" y="-120"/>
      <point x="347" y="-116" type="curve" smooth="yes"/>
      <point x="301" y="-69" type="line" smooth="yes"/>
      <point x="297" y="-65"/>
      <point x="297" y="-62"/>
      <point x="297" y="-60" type="curve" smooth="yes"/>
      <point x="297" y="-56"/>
      <point x="299" y="-52"/>
      <point x="302" y="-49" type="curve" smooth="yes"/>
      <point x="477" y="134" type="line"/>
    </contour>
    <contour>
      <point x="245" y="488" type="line"/>
      <point x="155" y="488"/>
      <point x="114" y="447"/>
      <point x="114" y="377" type="curve" smooth="yes"/>
      <point x="114" y="328"/>
      <point x="131" y="305"/>
      <point x="167" y="291" type="curve"/>
      <point x="167" y="287" type="line"/>
      <point x="131" y="273"/>
      <point x="114" y="246"/>
      <point x="114" y="201" type="curve" smooth="yes"/>
      <point x="114" y="122"/>
      <point x="165" y="80"/>
      <point x="257" y="80" type="curve" smooth="yes"/>
      <point x="379" y="80" type="line" smooth="yes"/>
      <point x="421" y="80"/>
      <point x="440" y="100"/>
      <point x="466" y="122" type="curve"/>
      <point x="470" y="122" type="line"/>
      <point x="470" y="-162" type="line" smooth="yes"/>
      <point x="470" y="-176"/>
      <point x="477" y="-181"/>
      <point x="489" y="-181" type="curve" smooth="yes"/>
      <point x="542" y="-181" type="line" smooth="yes"/>
      <point x="555" y="-181"/>
      <point x="561" y="-176"/>
      <point x="561" y="-162" type="curve" smooth="yes"/>
      <point x="561" y="531" type="line" smooth="yes"/>
      <point x="561" y="538"/>
      <point x="565" y="543"/>
      <point x="572" y="543" type="curve" smooth="yes"/>
      <point x="638" y="543" type="line"/>
      <point x="652" y="543"/>
      <point x="657" y="549"/>
      <point x="657" y="562" type="curve" smooth="yes"/>
      <point x="657" y="605" type="line" smooth="yes"/>
      <point x="657" y="617"/>
      <point x="652" y="623"/>
      <point x="638" y="623" type="curve" smooth="yes"/>
      <point x="-5" y="623" type="line" smooth="yes"/>
      <point x="-18" y="623"/>
      <point x="-24" y="617"/>
      <point x="-24" y="605" type="curve" smooth="yes"/>
      <point x="-24" y="563" type="line" smooth="yes"/>
      <point x="-24" y="549"/>
      <point x="-18" y="543"/>
      <point x="-5" y="543" type="curve" smooth="yes"/>
      <point x="272" y="543" type="line" smooth="yes"/>
      <point x="280" y="543"/>
      <point x="283" y="538"/>
      <point x="283" y="531" type="curve" smooth="yes"/>
      <point x="283" y="501" type="line" smooth="yes"/>
      <point x="283" y="493"/>
      <point x="280" y="488"/>
      <point x="272" y="488" type="curve" smooth="yes"/>
    </contour>
    <contour>
      <point x="328" y="422" type="line"/>
      <point x="353" y="422"/>
      <point x="374" y="435"/>
      <point x="374" y="466" type="curve" smooth="yes"/>
      <point x="374" y="531" type="line" smooth="yes"/>
      <point x="374" y="538"/>
      <point x="377" y="543"/>
      <point x="385" y="543" type="curve" smooth="yes"/>
      <point x="459" y="543" type="line"/>
      <point x="467" y="543"/>
      <point x="470" y="538"/>
      <point x="470" y="531" type="curve" smooth="yes"/>
      <point x="470" y="248" type="line" smooth="yes"/>
      <point x="470" y="195"/>
      <point x="446" y="159"/>
      <point x="373" y="159" type="curve" smooth="yes"/>
      <point x="257" y="159" type="line" smooth="yes"/>
      <point x="223" y="159"/>
      <point x="204" y="172"/>
      <point x="204" y="207" type="curve" smooth="yes"/>
      <point x="204" y="241"/>
      <point x="222" y="255"/>
      <point x="257" y="255" type="curve" smooth="yes"/>
      <point x="322" y="255" type="line" smooth="yes"/>
      <point x="335" y="255"/>
      <point x="341" y="261"/>
      <point x="341" y="273" type="curve" smooth="yes"/>
      <point x="341" y="310" type="line" smooth="yes"/>
      <point x="341" y="322"/>
      <point x="335" y="329"/>
      <point x="322" y="329" type="curve" smooth="yes"/>
      <point x="257" y="329" type="line" smooth="yes"/>
      <point x="221" y="329"/>
      <point x="204" y="343"/>
      <point x="204" y="375" type="curve" smooth="yes"/>
      <point x="204" y="410"/>
      <point x="221" y="422"/>
      <point x="266" y="422" type="curve" smooth="yes"/>
    </contour>
  </outline>
</glyph>
<glyph name="dvD_Y_RA" format="1">
  <advance width="573"/>
  <outline>
    <contour>
      <point x="186" y="485" type="line"/>
      <point x="95" y="485"/>
      <point x="54" y="445"/>
      <point x="54" y="367" type="curve" smooth="yes"/>
      <point x="54" y="357" type="line" smooth="yes"/>
      <point x="54" y="314"/>
      <point x="70" y="287"/>
      <point x="106" y="274" type="curve"/>
      <point x="106" y="270" type="line"/>
      <point x="71" y="256"/>
      <point x="54" y="223"/>
      <point x="54" y="182" type="curve" smooth="yes"/>
      <point x="54" y="164" type="line" smooth="yes"/>
      <point x="54" y="86"/>
      <point x="104" y="46"/>
      <point x="196" y="46" type="curve" smooth="yes"/>
      <point x="318" y="46" type="line" smooth="yes"/>
      <point x="360" y="46"/>
      <point x="383" y="60"/>
      <point x="406" y="82" type="curve"/>
      <point x="410" y="82" type="line"/>
      <point x="410" y="19" type="line" smooth="yes"/>
      <point x="410" y="5"/>
      <point x="416" y="0"/>
      <point x="429" y="0" type="curve" smooth="yes"/>
      <point x="481" y="0" type="line" smooth="yes"/>
      <point x="494" y="0"/>
      <point x="501" y="5"/>
      <point x="501" y="19" type="curve" smooth="yes"/>
      <point x="501" y="531" type="line" smooth="yes"/>
      <point x="501" y="538"/>
      <point x="504" y="543"/>
      <point x="512" y="543" type="curve"/>
      <point x="577" y="543" type="line"/>
      <point x="592" y="543"/>
      <point x="597" y="549"/>
      <point x="597" y="562" type="curve" smooth="yes"/>
      <point x="597" y="605" type="line" smooth="yes"/>
      <point x="597" y="617"/>
      <point x="592" y="623"/>
      <point x="577" y="623" type="curve" smooth="yes"/>
      <point x="-5" y="623" type="line" smooth="yes"/>
      <point x="-18" y="623"/>
      <point x="-24" y="617"/>
      <point x="-24" y="605" type="curve" smooth="yes"/>
      <point x="-24" y="563" type="line" smooth="yes"/>
      <point x="-24" y="549"/>
      <point x="-18" y="543"/>
      <point x="-5" y="543" type="curve" smooth="yes"/>
      <point x="211" y="543" type="line" smooth="yes"/>
      <point x="219" y="543"/>
      <point x="223" y="538"/>
      <point x="223" y="531" type="curve" smooth="yes"/>
      <point x="223" y="498" type="line" smooth="yes"/>
      <point x="223" y="490"/>
      <point x="219" y="485"/>
      <point x="211" y="485" type="curve" smooth="yes"/>
    </contour>
    <contour>
      <point x="267" y="412" type="line"/>
      <point x="293" y="412"/>
      <point x="313" y="425"/>
      <point x="313" y="456" type="curve" smooth="yes"/>
      <point x="313" y="531" type="line" smooth="yes"/>
      <point x="313" y="538"/>
      <point x="317" y="543"/>
      <point x="324" y="543" type="curve" smooth="yes"/>
      <point x="399" y="543" type="line"/>
      <point x="406" y="543"/>
      <point x="410" y="538"/>
      <point x="410" y="531" type="curve"/>
      <point x="410" y="209" type="line" smooth="yes"/>
      <point x="410" y="156"/>
      <point x="386" y="120"/>
      <point x="312" y="120" type="curve" smooth="yes"/>
      <point x="196" y="120" type="line" smooth="yes"/>
      <point x="162" y="120"/>
      <point x="143" y="136"/>
      <point x="143" y="171" type="curve" smooth="yes"/>
      <point x="143" y="184" type="line" smooth="yes"/>
      <point x="143" y="218"/>
      <point x="161" y="234"/>
      <point x="196" y="234" type="curve" smooth="yes"/>
      <point x="261" y="234" type="line" smooth="yes"/>
      <point x="274" y="234"/>
      <point x="280" y="240"/>
      <point x="280" y="252" type="curve" smooth="yes"/>
      <point x="280" y="296" type="line" smooth="yes"/>
      <point x="280" y="308"/>
      <point x="274" y="315"/>
      <point x="261" y="315" type="curve" smooth="yes"/>
      <point x="196" y="315" type="line" smooth="yes"/>
      <point x="160" y="315"/>
      <point x="143" y="328"/>
      <point x="143" y="361" type="curve" smooth="yes"/>
      <point x="143" y="365" type="line" smooth="yes"/>
      <point x="143" y="399"/>
      <point x="160" y="412"/>
      <point x="206" y="412" type="curve" smooth="yes"/>
    </contour>
    <contour>
      <point x="335" y="119" type="line"/>
      <point x="189" y="-26" type="line" smooth="yes"/>
      <point x="184" y="-31"/>
      <point x="181" y="-36"/>
      <point x="181" y="-41" type="curve" smooth="yes"/>
      <point x="181" y="-48"/>
      <point x="186" y="-53"/>
      <point x="196" y="-53" type="curve" smooth="yes"/>
      <point x="259" y="-53" type="line" smooth="yes"/>
      <point x="270" y="-53"/>
      <point x="278" y="-49"/>
      <point x="283" y="-44" type="curve" smooth="yes"/>
      <point x="301" y="-25"/>
      <point x="401" y="76"/>
      <point x="441" y="123" type="curve"/>
    </contour>
  </outline>
</glyph>
<glyph name="dvG_DA" format="1">
  <advance width="757"/>
  <outline>
    <contour>
      <point x="608" y="14" type="move" name="blwm_halant"/>
    </contour>
    <contour>
      <point x="608" y="0" type="move" name="blwm_Ukaar"/>
    </contour>
    <contour>
      <point x="697" y="0" type="move" name="blwm_VocalicR"/>
    </contour>
    <contour>
      <point x="569" y="623" type="move" name="abvm_Anusvara"/>
    </contour>
    <contour>
      <point x="608" y="0" type="move" name="blwm_Uukaar"/>
    </contour>
    <contour>
      <point x="688" y="623" type="move" name="abvm_Ekaar"/>
    </contour>
    <component base="dvG"/>
    <component base="dvDA" xOffset="272"/>
  </outline>
</glyph>
<glyph name="dvH_LA" format="1">
  <advance width="1097"/>
  <outline>
    <contour>
      <point x="490" y="671" type="move" name="TopReph"/>
    </contour>
    <contour>
      <point x="490" y="671" type="move" name="TopChandra"/>
    </contour>
    <contour>
      <point x="490" y="671" type="move" name="TopAnusvara"/>
    </contour>
    <contour>
      <point x="490" y="671" type="move" name="TopEkaar"/>
    </contour>
    <component base="dvVirama" xOffset="380" yOffset="-45"/>
    <component base="dvLA" xOffset="444"/>
    <component base="dvHA"/>
  </outline>
</glyph>
<glyph name="dvK_DA" format="1">
  <advance width="1005"/>
  <outline>
    <contour>
      <point x="856" y="14" type="move" name="blwm_halant"/>
    </contour>
    <contour>
      <point x="856" y="0" type="move" name="blwm_Ukaar"/>
    </contour>
    <contour>
      <point x="945" y="0" type="move" name="blwm_VocalicR"/>
    </contour>
    <contour>
      <point x="817" y="623" type="move" name="abvm_Anusvara"/>
    </contour>
    <contour>
      <point x="856" y="0" type="move" name="blwm_Uukaar"/>
    </contour>
    <contour>
      <point x="936" y="623" type="move" name="abvm_Ekaar"/>
    </contour>
    <component base="dvDA" xOffset="520"/>
    <component base="dvK"/>
  </outline>
</glyph>
<glyph name="dvK_KA" format="1">
  <advance width="1246"/>
  <outline>
    <contour>
      <point x="837" y="0" type="move" name="blwm_halant"/>
    </contour>
    <contour>
      <point x="837" y="0" type="move" name="blwm_Ukaar"/>
    </contour>
    <contour>
      <point x="926" y="0" type="move" name="blwm_VocalicR"/>
    </contour>
    <contour>
      <point x="926" y="623" type="move" name="abvm_Anusvara"/>
    </contour>
    <contour>
      <point x="837" y="0" type="move" name="blwm_Uukaar"/>
    </contour>
    <contour>
      <point x="926" y="623" type="move" name="abvm_Ekaar"/>
    </contour>
    <component base="dvKA" xOffset="518"/>
    <component base="dvK"/>
  </outline>
</glyph>
<glyph name="dvK_TTA" format="1">
  <advance width="977"/>
  <outline>
    <contour>
      <point x="693" y="49" type="move" name="blwm_halant"/>
    </contour>
    <contour>
      <point x="727" y="-22" type="move" name="blwm_Ukaar"/>
    </contour>
    <contour>
      <point x="836" y="93" type="move" name="blwm_Rashtra"/>
    </contour>
    <contour>
      <point x="812" y="-22" type="move" name="blwm_VocalicR"/>
    </contour>
    <contour>
      <point x="796" y="623" type="move" name="abvm_Anusvara"/>
    </contour>
    <contour>
      <point x="688" y="-29" type="move" name="blwm_Uukaar"/>
    </contour>
    <contour>
      <point x="886" y="623" type="move" name="abvm_Ekaar"/>
    </contour>
    <component base="dvTTA" xOffset="504"/>
    <component base="dvK"/>
  </outline>
</glyph>
<glyph name="dvKx_RA" format="1">
  <advance width="729"/>
  <outline>
    <contour>
      <point x="320" y="0" type="move" name="blwm_halant"/>
    </contour>
    <contour>
      <point x="320" y="0" type="move" name="blwm_Ukaar"/>
    </contour>
    <contour>
      <point x="409" y="0" type="move" name="blwm_VocalicR"/>
    </contour>
    <contour>
      <point x="409" y="623" type="move" name="abvm_Anusvara"/>
    </contour>
    <contour>
      <point x="320" y="0" type="move" name="blwm_Uukaar"/>
    </contour>
    <contour>
      <point x="409" y="623" type="move" name="abvm_Ekaar"/>
    </contour>
    <component base="dvK_RA"/>
    <component base="dvNukta" xOffset="471" yOffset="-46"/>
  </outline>
</glyph>
<glyph name="dvL_DA" format="1">
  <advance width="916"/>
  <outline>
    <contour>
      <point x="767" y="14" type="move" name="blwm_halant"/>
    </contour>
    <contour>
      <point x="767" y="0" type="move" name="blwm_Ukaar"/>
    </contour>
    <contour>
      <point x="856" y="0" type="move" name="blwm_VocalicR"/>
    </contour>
    <contour>
      <point x="728" y="623" type="move" name="abvm_Anusvara"/>
    </contour>
    <contour>
      <point x="767" y="0" type="move" name="blwm_Uukaar"/>
    </contour>
    <contour>
      <point x="847" y="623" type="move" name="abvm_Ekaar"/>
    </contour>
    <component base="dvL"/>
    <component base="dvDA" xOffset="431"/>
  </outline>
</glyph>
<glyph name="dvL_DDHA" format="1">
  <advance width="905"/>
  <outline>
    <contour>
      <point x="618" y="49" type="move" name="blwm_halant"/>
    </contour>
    <contour>
      <point x="647" y="-22" type="move" name="blwm_Ukaar"/>
    </contour>
    <contour>
      <point x="769" y="93" type="move" name="blwm_Rashtra"/>
    </contour>
    <contour>
      <point x="734" y="-22" type="move" name="blwm_VocalicR"/>
    </contour>
    <contour>
      <point x="730" y="623" type="move" name="abvm_Anusvara"/>
    </contour>
    <contour>
      <point x="610" y="-29" type="move" name="blwm_Uukaar"/>
    </contour>
    <contour>
      <point x="828" y="623" type="move" name="abvm_Ekaar"/>
    </contour>
    <component base="dvL"/>
    <component base="dvDDHA" xOffset="419"/>
  </outline>
</glyph>
<glyph name="dvL_D_RA" format="1">
  <advance width="917"/>
  <outline>
    <contour>
      <point x="769" y="0" type="move" name="blwm_halant"/>
    </contour>
    <contour>
      <point x="769" y="0" type="move" name="blwm_Ukaar"/>
    </contour>
    <contour>
      <point x="857" y="0" type="move" name="blwm_VocalicR"/>
    </contour>
    <contour>
      <point x="736" y="623" type="move" name="abvm_Anusvara"/>
    </contour>
    <contour>
      <point x="769" y="0" type="move" name="blwm_Uukaar"/>
    </contour>
    <contour>
      <point x="846" y="623" type="move" name="abvm_Ekaar"/>
    </contour>
    <component base="dvL"/>
    <component base="dvD_RA" xOffset="432"/>
  </outline>
</glyph>
<glyph name="dvL_KA" format="1">
  <advance width="1161"/>
  <outline>
    <contour>
      <point x="752" y="0" type="move" name="blwm_halant"/>
    </contour>
    <contour>
      <point x="752" y="0" type="move" name="blwm_Ukaar"/>
    </contour>
    <contour>
      <point x="841" y="0" type="move" name="blwm_VocalicR"/>
    </contour>
    <contour>
      <point x="841" y="623" type="move" name="abvm_Anusvara"/>
    </contour>
    <contour>
      <point x="752" y="0" type="move" name="blwm_Uukaar"/>
    </contour>
    <contour>
      <point x="841" y="623" type="move" name="abvm_Ekaar"/>
    </contour>
    <component base="dvL"/>
    <component base="dvKA" xOffset="432"/>
  </outline>
</glyph>
<glyph name="dvL_TTA" format="1">
  <advance width="903"/>
  <outline>
    <contour>
      <point x="626" y="49" type="move" name="blwm_halant"/>
    </contour>
    <contour>
      <point x="660" y="-22" type="move" name="blwm_Ukaar"/>
    </contour>
    <contour>
      <point x="769" y="93" type="move" name="blwm_Rashtra"/>
    </contour>
    <contour>
      <point x="745" y="-22" type="move" name="blwm_VocalicR"/>
    </contour>
    <contour>
      <point x="729" y="623" type="move" name="abvm_Anusvara"/>
    </contour>
    <contour>
      <point x="621" y="-29" type="move" name="blwm_Uukaar"/>
    </contour>
    <contour>
      <point x="819" y="623" type="move" name="abvm_Ekaar"/>
    </contour>
    <component base="dvL"/>
    <component base="dvTTA" xOffset="430"/>
  </outline>
</glyph>
<glyph name="dvL_TTHA" format="1">
  <advance width="932"/>
  <outline>
    <contour>
      <point x="621" y="49" type="move" name="blwm_halant"/>
    </contour>
    <contour>
      <point x="651" y="-22" type="move" name="blwm_Ukaar"/>
    </contour>
    <contour>
      <point x="766" y="93" type="move" name="blwm_Rashtra"/>
    </contour>
    <contour>
      <point x="741" y="-22" type="move" name="blwm_VocalicR"/>
    </contour>
    <contour>
      <point x="726" y="623" type="move" name="abvm_Anusvara"/>
    </contour>
    <contour>
      <point x="616" y="-29" type="move" name="blwm_Uukaar"/>
    </contour>
    <contour>
      <point x="825" y="623" type="move" name="abvm_Ekaar"/>
    </contour>
    <component base="dvL"/>
    <component base="dvTTHA" xOffset="428"/>
  </outline>
</glyph>
<glyph name="dvNN_DDHA" format="1">
  <advance width="909"/>
  <outline>
    <contour>
      <point x="622" y="49" type="move" name="blwm_halant"/>
    </contour>
    <contour>
      <point x="651" y="-22" type="move" name="blwm_Ukaar"/>
    </contour>
    <contour>
      <point x="773" y="93" type="move" name="blwm_Rashtra"/>
    </contour>
    <contour>
      <point x="738" y="-22" type="move" name="blwm_VocalicR"/>
    </contour>
    <contour>
      <point x="734" y="623" type="move" name="abvm_Anusvara"/>
    </contour>
    <contour>
      <point x="614" y="-29" type="move" name="blwm_Uukaar"/>
    </contour>
    <contour>
      <point x="832" y="623" type="move" name="abvm_Ekaar"/>
    </contour>
    <component base="dvNN"/>
    <component base="dvDDHA" xOffset="423"/>
  </outline>
</glyph>
<glyph name="dvNN_TTA" format="1">
  <advance width="901"/>
  <outline>
    <contour>
      <point x="627" y="49" type="move" name="blwm_halant"/>
    </contour>
    <contour>
      <point x="661" y="-22" type="move" name="blwm_Ukaar"/>
    </contour>
    <contour>
      <point x="770" y="93" type="move" name="blwm_Rashtra"/>
    </contour>
    <contour>
      <point x="746" y="-22" type="move" name="blwm_VocalicR"/>
    </contour>
    <contour>
      <point x="730" y="623" type="move" name="abvm_Anusvara"/>
    </contour>
    <contour>
      <point x="622" y="-29" type="move" name="blwm_Uukaar"/>
    </contour>
    <contour>
      <point x="820" y="623" type="move" name="abvm_Ekaar"/>
    </contour>
    <component base="dvNN"/>
    <component base="dvTTA" xOffset="428"/>
  </outline>
</glyph>
<glyph name="dvNN_TTHA" format="1">
  <advance width="932"/>
  <outline>
    <contour>
      <point x="624" y="49" type="move" name="blwm_halant"/>
    </contour>
    <contour>
      <point x="654" y="-22" type="move" name="blwm_Ukaar"/>
    </contour>
    <contour>
      <point x="769" y="93" type="move" name="blwm_Rashtra"/>
    </contour>
    <contour>
      <point x="744" y="-22" type="move" name="blwm_VocalicR"/>
    </contour>
    <contour>
      <point x="729" y="623" type="move" name="abvm_Anusvara"/>
    </contour>
    <contour>
      <point x="620" y="-29" type="move" name="blwm_Uukaar"/>
    </contour>
    <contour>
      <point x="828" y="623" type="move" name="abvm_Ekaar"/>
    </contour>
    <component base="dvNN"/>
    <component base="dvTTHA" xOffset="428"/>
  </outline>
</glyph>
<glyph name="dvN_DA" format="1">
  <advance width="725"/>
  <outline>
    <contour>
      <point x="576" y="14" type="move" name="blwm_halant"/>
    </contour>
    <contour>
      <point x="576" y="0" type="move" name="blwm_Ukaar"/>
    </contour>
    <contour>
      <point x="665" y="0" type="move" name="blwm_VocalicR"/>
    </contour>
    <contour>
      <point x="537" y="623" type="move" name="abvm_Anusvara"/>
    </contour>
    <contour>
      <point x="576" y="0" type="move" name="blwm_Uukaar"/>
    </contour>
    <contour>
      <point x="656" y="623" type="move" name="abvm_Ekaar"/>
    </contour>
    <component base="dvN"/>
    <component base="dvDA" xOffset="240"/>
  </outline>
</glyph>
<glyph name="dvN_D_RA" format="1">
  <advance width="730"/>
  <outline>
    <contour>
      <point x="582" y="0" type="move" name="blwm_halant"/>
    </contour>
    <contour>
      <point x="582" y="0" type="move" name="blwm_Ukaar"/>
    </contour>
    <contour>
      <point x="670" y="0" type="move" name="blwm_VocalicR"/>
    </contour>
    <contour>
      <point x="550" y="623" type="move" name="abvm_Anusvara"/>
    </contour>
    <contour>
      <point x="582" y="0" type="move" name="blwm_Uukaar"/>
    </contour>
    <contour>
      <point x="659" y="623" type="move" name="abvm_Ekaar"/>
    </contour>
    <component base="dvN"/>
    <component base="dvD_RA" xOffset="245"/>
  </outline>
</glyph>
<glyph name="dvN_KA" format="1">
  <advance width="981"/>
  <outline>
    <contour>
      <point x="572" y="0" type="move" name="blwm_halant"/>
    </contour>
    <contour>
      <point x="572" y="0" type="move" name="blwm_Ukaar"/>
    </contour>
    <contour>
      <point x="661" y="0" type="move" name="blwm_VocalicR"/>
    </contour>
    <contour>
      <point x="661" y="623" type="move" name="abvm_Anusvara"/>
    </contour>
    <contour>
      <point x="572" y="0" type="move" name="blwm_Uukaar"/>
    </contour>
    <contour>
      <point x="661" y="623" type="move" name="abvm_Ekaar"/>
    </contour>
    <component base="dvKA" xOffset="252"/>
    <component base="dvN"/>
  </outline>
</glyph>
<glyph name="dvN_PHA" format="1">
  <advance width="984"/>
  <outline>
    <contour>
      <point x="573" y="0" type="move" name="blwm_halant"/>
    </contour>
    <contour>
      <point x="573" y="0" type="move" name="blwm_Ukaar"/>
    </contour>
    <contour>
      <point x="663" y="0" type="move" name="blwm_VocalicR"/>
    </contour>
    <contour>
      <point x="663" y="623" type="move" name="abvm_Anusvara"/>
    </contour>
    <contour>
      <point x="573" y="0" type="move" name="blwm_Uukaar"/>
    </contour>
    <contour>
      <point x="663" y="623" type="move" name="abvm_Ekaar"/>
    </contour>
    <component base="dvPHA" xOffset="241"/>
    <component base="dvN"/>
  </outline>
</glyph>
<glyph name="dvN_PH_RA" format="1">
  <advance width="985"/>
  <outline>
    <contour>
      <point x="574" y="0" type="move" name="blwm_halant"/>
    </contour>
    <contour>
      <point x="574" y="0" type="move" name="blwm_Ukaar"/>
    </contour>
    <contour>
      <point x="665" y="0" type="move" name="blwm_VocalicR"/>
    </contour>
    <contour>
      <point x="665" y="623" type="move" name="abvm_Anusvara"/>
    </contour>
    <contour>
      <point x="574" y="0" type="move" name="blwm_Uukaar"/>
    </contour>
    <contour>
      <point x="665" y="623" type="move" name="abvm_Ekaar"/>
    </contour>
    <component base="dvN"/>
    <component base="dvPH_RA" xOffset="239"/>
  </outline>
</glyph>
<glyph name="dvN_TTA" format="1">
  <advance width="703"/>
  <outline>
    <contour>
      <point x="426" y="49" type="move" name="blwm_halant"/>
    </contour>
    <contour>
      <point x="460" y="-22" type="move" name="blwm_Ukaar"/>
    </contour>
    <contour>
      <point x="569" y="93" type="move" name="blwm_Rashtra"/>
    </contour>
    <contour>
      <point x="545" y="-22" type="move" name="blwm_VocalicR"/>
    </contour>
    <contour>
      <point x="529" y="623" type="move" name="abvm_Anusvara"/>
    </contour>
    <contour>
      <point x="421" y="-29" type="move" name="blwm_Uukaar"/>
    </contour>
    <contour>
      <point x="619" y="623" type="move" name="abvm_Ekaar"/>
    </contour>
    <component base="dvTTA" xOffset="230"/>
    <component base="dvN"/>
  </outline>
</glyph>
<glyph name="dvPH_TTA" format="1">
  <advance width="999"/>
  <outline>
    <contour>
      <point x="722" y="49" type="move" name="blwm_halant"/>
    </contour>
    <contour>
      <point x="757" y="-22" type="move" name="blwm_Ukaar"/>
    </contour>
    <contour>
      <point x="866" y="93" type="move" name="blwm_Rashtra"/>
    </contour>
    <contour>
      <point x="841" y="-22" type="move" name="blwm_VocalicR"/>
    </contour>
    <contour>
      <point x="826" y="623" type="move" name="abvm_Anusvara"/>
    </contour>
    <contour>
      <point x="718" y="-29" type="move" name="blwm_Uukaar"/>
    </contour>
    <contour>
      <point x="916" y="623" type="move" name="abvm_Ekaar"/>
    </contour>
    <component base="dvTTA" xOffset="527"/>
    <component base="dvPH"/>
  </outline>
</glyph>
<glyph name="dvSHA.amvR" format="1">
  <advance width="608"/>
  <outline>
    <contour>
      <point x="536" y="39" type="move" name="blwm_VocalicR"/>
    </contour>
    <contour>
      <point x="445" y="22" type="line"/>
      <point x="445" y="8"/>
      <point x="452" y="3"/>
      <point x="464" y="3" type="curve" smooth="yes"/>
      <point x="517" y="3" type="line" smooth="yes"/>
      <point x="530" y="3"/>
      <point x="536" y="8"/>
      <point x="536" y="22" type="curve" smooth="yes"/>
      <point x="536" y="531" type="line"/>
      <point x="536" y="538"/>
      <point x="540" y="543"/>
      <point x="547" y="543" type="curve" smooth="yes"/>
      <point x="613" y="543" type="line" smooth="yes"/>
      <point x="627" y="543"/>
      <point x="632" y="549"/>
      <point x="632" y="562" type="curve" smooth="yes"/>
      <point x="632" y="605" type="line" smooth="yes"/>
      <point x="632" y="617"/>
      <point x="627" y="623"/>
      <point x="613" y="623" type="curve" smooth="yes"/>
      <point x="482" y="623" type="line" smooth="yes"/>
      <point x="459" y="623"/>
      <point x="445" y="607"/>
      <point x="445" y="585" type="curve" smooth="yes"/>
    </contour>
    <contour>
      <point x="70" y="200" type="line"/>
      <point x="74" y="196"/>
      <point x="79" y="194"/>
      <point x="86" y="194" type="curve" smooth="yes"/>
      <point x="89" y="194"/>
      <point x="95" y="196"/>
      <point x="98" y="198" type="curve" smooth="yes"/>
      <point x="270" y="302" type="line" smooth="yes"/>
      <point x="343" y="346"/>
      <point x="382" y="390"/>
      <point x="382" y="479" type="curve" smooth="yes"/>
      <point x="382" y="576"/>
      <point x="337" y="625"/>
      <point x="229" y="625" type="curve" smooth="yes"/>
      <point x="118" y="625"/>
      <point x="73" y="576"/>
      <point x="73" y="483" type="curve" smooth="yes"/>
      <point x="73" y="400"/>
      <point x="120" y="355"/>
      <point x="173" y="321" type="curve" smooth="yes"/>
      <point x="465" y="134" type="line"/>
      <point x="472" y="226" type="line"/>
      <point x="225" y="383" type="line" smooth="yes"/>
      <point x="187" y="407"/>
      <point x="166" y="433"/>
      <point x="166" y="479" type="curve" smooth="yes"/>
      <point x="166" y="530"/>
      <point x="186" y="546"/>
      <point x="229" y="546" type="curve" smooth="yes"/>
      <point x="272" y="546"/>
      <point x="292" y="530"/>
      <point x="292" y="479" type="curve" smooth="yes"/>
      <point x="292" y="435"/>
      <point x="278" y="401"/>
      <point x="217" y="365" type="curve" smooth="yes"/>
      <point x="37" y="260" type="line" smooth="yes"/>
      <point x="32" y="257"/>
      <point x="29" y="253"/>
      <point x="29" y="248" type="curve" smooth="yes"/>
      <point x="29" y="244"/>
      <point x="31" y="241"/>
      <point x="34" y="237" type="curve" smooth="yes"/>
    </contour>
  </outline>
</glyph>
<glyph name="dvS_DA" format="1">
  <advance width="847"/>
  <outline>
    <contour>
      <point x="698" y="14" type="move" name="blwm_halant"/>
    </contour>
    <contour>
      <point x="698" y="0" type="move" name="blwm_Ukaar"/>
    </contour>
    <contour>
      <point x="787" y="0" type="move" name="blwm_VocalicR"/>
    </contour>
    <contour>
      <point x="659" y="623" type="move" name="abvm_Anusvara"/>
    </contour>
    <contour>
      <point x="698" y="0" type="move" name="blwm_Uukaar"/>
    </contour>
    <contour>
      <point x="778" y="623" type="move" name="abvm_Ekaar"/>
    </contour>
    <component base="dvDA" xOffset="362"/>
    <component base="dvS"/>
  </outline>
</glyph>
<glyph name="dvS_KA" format="1">
  <advance width="1088"/>
  <outline>
    <contour>
      <point x="679" y="0" type="move" name="blwm_halant"/>
    </contour>
    <contour>
      <point x="679" y="0" type="move" name="blwm_Ukaar"/>
    </contour>
    <contour>
      <point x="768" y="0" type="move" name="blwm_VocalicR"/>
    </contour>
    <contour>
      <point x="768" y="623" type="move" name="abvm_Anusvara"/>
    </contour>
    <contour>
      <point x="679" y="0" type="move" name="blwm_Uukaar"/>
    </contour>
    <contour>
      <point x="768" y="623" type="move" name="abvm_Ekaar"/>
    </contour>
    <component base="dvKA" xOffset="359"/>
    <component base="dvS"/>
  </outline>
</glyph>
<glyph name="dvS_K_RA" format="1">
  <advance width="1093"/>
  <outline>
    <contour>
      <point x="684" y="0" type="move" name="blwm_halant"/>
    </contour>
    <contour>
      <point x="684" y="0" type="move" name="blwm_Ukaar"/>
    </contour>
    <contour>
      <point x="773" y="0" type="move" name="blwm_VocalicR"/>
    </contour>
    <contour>
      <point x="773" y="623" type="move" name="abvm_Anusvara"/>
    </contour>
    <contour>
      <point x="684" y="0" type="move" name="blwm_Uukaar"/>
    </contour>
    <contour>
      <point x="773" y="623" type="move" name="abvm_Ekaar"/>
    </contour>
    <component base="dvK_RA" xOffset="364"/>
    <component base="dvS"/>
  </outline>
</glyph>
<glyph name="dvS_PHA" format="1">
  <advance width="1101"/>
  <outline>
    <contour>
      <point x="690" y="0" type="move" name="blwm_halant"/>
    </contour>
    <contour>
      <point x="690" y="0" type="move" name="blwm_Ukaar"/>
    </contour>
    <contour>
      <point x="781" y="0" type="move" name="blwm_VocalicR"/>
    </contour>
    <contour>
      <point x="781" y="623" type="move" name="abvm_Anusvara"/>
    </contour>
    <contour>
      <point x="690" y="0" type="move" name="blwm_Uukaar"/>
    </contour>
    <contour>
      <point x="781" y="623" type="move" name="abvm_Ekaar"/>
    </contour>
    <component base="dvPHA" xOffset="359"/>
    <component base="dvS"/>
  </outline>
</glyph>
<glyph name="dvS_TTA" format="1">
  <advance width="842"/>
  <outline>
    <contour>
      <point x="565" y="49" type="move" name="blwm_halant"/>
    </contour>
    <contour>
      <point x="599" y="-22" type="move" name="blwm_Ukaar"/>
    </contour>
    <contour>
      <point x="708" y="93" type="move" name="blwm_Rashtra"/>
    </contour>
    <contour>
      <point x="684" y="-22" type="move" name="blwm_VocalicR"/>
    </contour>
    <contour>
      <point x="668" y="623" type="move" name="abvm_Anusvara"/>
    </contour>
    <contour>
      <point x="560" y="-29" type="move" name="blwm_Uukaar"/>
    </contour>
    <contour>
      <point x="758" y="623" type="move" name="abvm_Ekaar"/>
    </contour>
    <component base="dvTTA" xOffset="369"/>
    <component base="dvS"/>
  </outline>
</glyph>
<glyph name="dvTTH_NA" format="1">
  <advance width="517"/>
  <outline>
    <contour>
      <point x="321" y="-261" type="move" name="blwm_halant"/>
    </contour>
    <contour>
      <point x="321" y="-261" type="move" name="blwm_Ukaar"/>
    </contour>
    <contour>
      <point x="413" y="-261" type="move" name="blwm_VocalicR"/>
    </contour>
    <contour>
      <point x="298" y="623" type="move" name="abvm_Anusvara"/>
    </contour>
    <contour>
      <point x="321" y="-261" type="move" name="blwm_Uukaar"/>
    </contour>
    <contour>
      <point x="413" y="623" type="move" name="abvm_Ekaar"/>
    </contour>
    <contour>
      <point x="522" y="543" type="line"/>
      <point x="535" y="543"/>
      <point x="541" y="549"/>
      <point x="541" y="562" type="curve" smooth="yes"/>
      <point x="541" y="604" type="line" smooth="yes"/>
      <point x="541" y="617"/>
      <point x="535" y="623"/>
      <point x="522" y="623" type="curve" smooth="yes"/>
      <point x="-5" y="623" type="line" smooth="yes"/>
      <point x="-19" y="623"/>
      <point x="-24" y="617"/>
      <point x="-24" y="604" type="curve" smooth="yes"/>
      <point x="-24" y="562" type="line" smooth="yes"/>
      <point x="-24" y="549"/>
      <point x="-19" y="543"/>
      <point x="-5" y="543" type="curve" smooth="yes"/>
      <point x="312" y="543" type="line" smooth="yes"/>
      <point x="319" y="542"/>
      <point x="322" y="538"/>
      <point x="322" y="531" type="curve" smooth="yes"/>
      <point x="322" y="501" type="line" smooth="yes"/>
      <point x="322" y="459"/>
      <point x="301" y="445"/>
      <point x="265" y="445" type="curve" smooth="yes"/>
      <point x="209" y="445" type="line" smooth="yes"/>
      <point x="108" y="445"/>
      <point x="49" y="386"/>
      <point x="49" y="286" type="curve" smooth="yes"/>
      <point x="49" y="244" type="line" smooth="yes"/>
      <point x="49" y="142"/>
      <point x="107" y="83"/>
      <point x="208" y="83" type="curve" smooth="yes"/>
      <point x="301" y="83" type="line" smooth="yes"/>
      <point x="399" y="83"/>
      <point x="461" y="140"/>
      <point x="461" y="237" type="curve" smooth="yes"/>
      <point x="461" y="304" type="line" smooth="yes"/>
      <point x="461" y="367"/>
      <point x="426" y="407"/>
      <point x="376" y="416" type="curve"/>
      <point x="376" y="420" type="line"/>
      <point x="404" y="430"/>
      <point x="413" y="453"/>
      <point x="413" y="483" type="curve" smooth="yes"/>
      <point x="413" y="531" type="line" smooth="yes"/>
      <point x="413" y="538"/>
      <point x="416" y="543"/>
      <point x="424" y="543" type="curve"/>
    </contour>
    <contour>
      <point x="293" y="364" type="line"/>
      <point x="346" y="364"/>
      <point x="371" y="334"/>
      <point x="371" y="284" type="curve" smooth="yes"/>
      <point x="371" y="247" type="line" smooth="yes"/>
      <point x="371" y="193"/>
      <point x="343" y="164"/>
      <point x="289" y="164" type="curve"/>
      <point x="221" y="164" type="line" smooth="yes"/>
      <point x="166" y="164"/>
      <point x="138" y="193"/>
      <point x="138" y="247" type="curve" smooth="yes"/>
      <point x="138" y="284" type="line" smooth="yes"/>
      <point x="138" y="338"/>
      <point x="163" y="364"/>
      <point x="218" y="364" type="curve" smooth="yes"/>
    </contour>
    <contour>
      <point x="321" y="123" type="line"/>
      <point x="321" y="11" type="line" smooth="yes"/>
      <point x="321" y="4"/>
      <point x="318" y="-1"/>
      <point x="310" y="-1" type="curve" smooth="yes"/>
      <point x="165" y="-1" type="line" smooth="yes"/>
      <point x="95" y="-1"/>
      <point x="51" y="-44"/>
      <point x="51" y="-109" type="curve" smooth="yes"/>
      <point x="51" y="-138"/>
      <point x="55" y="-170"/>
      <point x="69" y="-192" type="curve" smooth="yes"/>
      <point x="75" y="-200"/>
      <point x="84" y="-205"/>
      <point x="96" y="-205" type="curve" smooth="yes"/>
      <point x="134" y="-205" type="line" smooth="yes"/>
      <point x="146" y="-205"/>
      <point x="152" y="-197"/>
      <point x="152" y="-187" type="curve" smooth="yes"/>
      <point x="152" y="-181"/>
      <point x="150" y="-175"/>
      <point x="148" y="-166" type="curve" smooth="yes"/>
      <point x="145" y="-154"/>
      <point x="141" y="-141"/>
      <point x="141" y="-127" type="curve" smooth="yes"/>
      <point x="141" y="-93"/>
      <point x="161" y="-82"/>
      <point x="197" y="-82" type="curve" smooth="yes"/>
      <point x="310" y="-82" type="line" smooth="yes"/>
      <point x="318" y="-82"/>
      <point x="321" y="-87"/>
      <point x="321" y="-95" type="curve" smooth="yes"/>
      <point x="321" y="-242" type="line" smooth="yes"/>
      <point x="321" y="-256"/>
      <point x="328" y="-261"/>
      <point x="341" y="-261" type="curve" smooth="yes"/>
      <point x="393" y="-261" type="line" smooth="yes"/>
      <point x="406" y="-261"/>
      <point x="412" y="-256"/>
      <point x="412" y="-242" type="curve" smooth="yes"/>
      <point x="412" y="123" type="line"/>
    </contour>
  </outline>
</glyph>
<glyph name="dvTTH_RA" format="1">
  <advance width="504"/>
  <outline>
    <contour>
      <point x="200" y="-85" type="move" name="blwm_halant"/>
    </contour>
    <contour>
      <point x="230" y="-156" type="move" name="blwm_Ukaar"/>
    </contour>
    <contour>
      <point x="322" y="-156" type="move" name="blwm_VocalicR"/>
    </contour>
    <contour>
      <point x="304" y="623" type="move" name="abvm_Anusvara"/>
    </contour>
    <contour>
      <point x="196" y="-164" type="move" name="blwm_Uukaar"/>
    </contour>
    <contour>
      <point x="400" y="623" type="move" name="abvm_Ekaar"/>
    </contour>
    <component base="dvRashtrasign" xOffset="513" yOffset="91"/>
    <component base="dvTTHA"/>
  </outline>
</glyph>
<glyph name="dvTT_NA" format="1">
  <advance width="504"/>
  <outline>
    <contour>
      <point x="321" y="-261" type="move" name="blwm_halant"/>
    </contour>
    <contour>
      <point x="321" y="-261" type="move" name="blwm_Ukaar"/>
    </contour>
    <contour>
      <point x="412" y="-261" type="move" name="blwm_VocalicR"/>
    </contour>
    <contour>
      <point x="303" y="623" type="move" name="abvm_Anusvara"/>
    </contour>
    <contour>
      <point x="321" y="-261" type="move" name="blwm_Uukaar"/>
    </contour>
    <contour>
      <point x="411" y="623" type="move" name="abvm_Ekaar"/>
    </contour>
    <contour>
      <point x="209" y="439" type="line"/>
      <point x="104" y="439"/>
      <point x="49" y="377"/>
      <point x="49" y="280" type="curve"/>
      <point x="49" y="244" type="line"/>
      <point x="49" y="147"/>
      <point x="104" y="83"/>
      <point x="209" y="83" type="curve" smooth="yes"/>
      <point x="304" y="83" type="line" smooth="yes"/>
      <point x="405" y="83"/>
      <point x="463" y="137"/>
      <point x="463" y="240" type="curve" smooth="yes"/>
      <point x="463" y="258" type="line" smooth="yes"/>
      <point x="463" y="273"/>
      <point x="457" y="281"/>
      <point x="443" y="281" type="curve" smooth="yes"/>
      <point x="396" y="281" type="line" smooth="yes"/>
      <point x="384" y="281"/>
      <point x="378" y="273"/>
      <point x="378" y="258" type="curve" smooth="yes"/>
      <point x="378" y="240" type="line" smooth="yes"/>
      <point x="378" y="184"/>
      <point x="349" y="164"/>
      <point x="296" y="164" type="curve" smooth="yes"/>
      <point x="219" y="164" type="line" smooth="yes"/>
      <point x="164" y="164"/>
      <point x="137" y="188"/>
      <point x="137" y="242" type="curve" smooth="yes"/>
      <point x="137" y="280" type="line" smooth="yes"/>
      <point x="137" y="334"/>
      <point x="164" y="358"/>
      <point x="219" y="358" type="curve"/>
      <point x="365" y="358" type="line" smooth="yes"/>
      <point x="390" y="358"/>
      <point x="411" y="371"/>
      <point x="411" y="402" type="curve" smooth="yes"/>
      <point x="411" y="531" type="line" smooth="yes"/>
      <point x="411" y="538"/>
      <point x="414" y="543"/>
      <point x="422" y="543" type="curve" smooth="yes"/>
      <point x="509" y="543" type="line" smooth="yes"/>
      <point x="522" y="543"/>
      <point x="528" y="549"/>
      <point x="528" y="562" type="curve" smooth="yes"/>
      <point x="528" y="605" type="line" smooth="yes"/>
      <point x="528" y="617"/>
      <point x="522" y="623"/>
      <point x="509" y="623" type="curve" smooth="yes"/>
      <point x="-5" y="623" type="line" smooth="yes"/>
      <point x="-19" y="623"/>
      <point x="-24" y="617"/>
      <point x="-24" y="605" type="curve" smooth="yes"/>
      <point x="-24" y="562" type="line" smooth="yes"/>
      <point x="-24" y="549"/>
      <point x="-19" y="543"/>
      <point x="-5" y="543" type="curve" smooth="yes"/>
      <point x="310" y="543" type="line" smooth="yes"/>
      <point x="317" y="543"/>
      <point x="321" y="538"/>
      <point x="321" y="531" type="curve" smooth="yes"/>
      <point x="321" y="451" type="line" smooth="yes"/>
      <point x="321" y="443"/>
      <point x="316" y="439"/>
      <point x="309" y="439" type="curve"/>
    </contour>
    <contour>
      <point x="321" y="123" type="line"/>
      <point x="321" y="11" type="line" smooth="yes"/>
      <point x="321" y="4"/>
      <point x="318" y="-1"/>
      <point x="310" y="-1" type="curve" smooth="yes"/>
      <point x="165" y="-1" type="line" smooth="yes"/>
      <point x="95" y="-1"/>
      <point x="51" y="-44"/>
      <point x="51" y="-109" type="curve" smooth="yes"/>
      <point x="51" y="-138"/>
      <point x="55" y="-170"/>
      <point x="69" y="-192" type="curve" smooth="yes"/>
      <point x="75" y="-200"/>
      <point x="84" y="-205"/>
      <point x="96" y="-205" type="curve" smooth="yes"/>
      <point x="134" y="-205" type="line" smooth="yes"/>
      <point x="146" y="-205"/>
      <point x="152" y="-197"/>
      <point x="152" y="-187" type="curve" smooth="yes"/>
      <point x="152" y="-181"/>
      <point x="150" y="-175"/>
      <point x="148" y="-166" type="curve" smooth="yes"/>
      <point x="145" y="-154"/>
      <point x="141" y="-141"/>
      <point x="141" y="-127" type="curve" smooth="yes"/>
      <point x="141" y="-93"/>
      <point x="161" y="-82"/>
      <point x="197" y="-82" type="curve" smooth="yes"/>
      <point x="310" y="-82" type="line" smooth="yes"/>
      <point x="318" y="-82"/>
      <point x="321" y="-87"/>
      <point x="321" y="-95" type="curve" smooth="yes"/>
      <point x="321" y="-242" type="line" smooth="yes"/>
      <point x="321" y="-256"/>
      <point x="328" y="-261"/>
      <point x="341" y="-261" type="curve" smooth="yes"/>
      <point x="393" y="-261" type="line" smooth="yes"/>
      <point x="406" y="-261"/>
      <point x="412" y="-256"/>
      <point x="412" y="-242" type="curve" smooth="yes"/>
      <point x="412" y="123" type="line"/>
    </contour>
  </outline>
</glyph>
<glyph name="dvTT_RA" format="1">
  <advance width="473"/>
  <outline>
    <contour>
      <point x="200" y="-75" type="move" name="blwm_halant"/>
    </contour>
    <contour>
      <point x="236" y="-155" type="move" name="blwm_Ukaar"/>
    </contour>
    <contour>
      <point x="312" y="-155" type="move" name="blwm_VocalicR"/>
    </contour>
    <contour>
      <point x="299" y="623" type="move" name="abvm_Anusvara"/>
    </contour>
    <contour>
      <point x="195" y="-162" type="move" name="blwm_Uukaar"/>
    </contour>
    <contour>
      <point x="389" y="623" type="move" name="abvm_Ekaar"/>
    </contour>
    <component base="dvRashtrasign" xOffset="510" yOffset="93"/>
    <component base="dvTTA"/>
  </outline>
</glyph>
<glyph name="dvT_PHA" format="1">
  <advance width="1000"/>
  <outline>
    <contour>
      <point x="589" y="0" type="move" name="blwm_halant"/>
    </contour>
    <contour>
      <point x="589" y="0" type="move" name="blwm_Ukaar"/>
    </contour>
    <contour>
      <point x="679" y="0" type="move" name="blwm_VocalicR"/>
    </contour>
    <contour>
      <point x="679" y="623" type="move" name="abvm_Anusvara"/>
    </contour>
    <contour>
      <point x="589" y="0" type="move" name="blwm_Uukaar"/>
    </contour>
    <contour>
      <point x="679" y="623" type="move" name="abvm_Ekaar"/>
    </contour>
    <component base="dvT" xOffset="-1"/>
    <component base="dvPHA" xOffset="257"/>
  </outline>
</glyph>
